# Blender v2.81 (sub 16) OBJ File: 'myMan.blend'
# www.blender.org
mtllib myMan.mtl
o Torso_Cube
v 1.000000 5.072340 -0.568289
v 1.000000 2.736079 -0.568289
v 1.000000 5.072340 0.568289
v 1.000000 2.736079 0.568289
v -1.000000 5.072340 -0.568289
v -1.000000 2.736079 -0.568289
v -1.000000 5.072340 0.568289
v -1.000000 2.736079 0.568289
vt 0.572832 0.445305
vt 0.572832 0.625002
vt 0.472062 0.625002
vt 0.472062 0.445305
vt 0.190621 0.215158
vt 0.190621 0.005248
vt 0.367942 0.005248
vt 0.367942 0.215158
vt 0.472062 0.435564
vt 0.472062 0.225654
vt 0.572832 0.225654
vt 0.572832 0.435564
vt 0.523638 0.184190
vt 0.523638 0.004492
vt 0.624408 0.004492
vt 0.624408 0.184190
vt 0.400776 0.414337
vt 0.400776 0.624247
vt 0.300006 0.624247
vt 0.300006 0.414337
vt 0.181755 0.005248
vt 0.181755 0.215158
vt 0.004433 0.215158
vt 0.004433 0.005248
vn 0.0000 1.0000 0.0000
vn 0.0000 0.0000 1.0000
vn -1.0000 0.0000 0.0000
vn 0.0000 -1.0000 0.0000
vn 1.0000 0.0000 0.0000
vn 0.0000 0.0000 -1.0000
usemtl MyMan
s off
f 1/1/1 5/2/1 7/3/1 3/4/1
f 4/5/2 3/6/2 7/7/2 8/8/2
f 8/9/3 7/10/3 5/11/3 6/12/3
f 6/13/4 2/14/4 4/15/4 8/16/4
f 2/17/5 1/18/5 3/19/5 4/20/5
f 6/21/6 5/22/6 1/23/6 2/24/6
o Head_Cube.001
v 1.000000 6.861495 -0.798889
v 1.000000 5.138505 -0.798889
v 1.000000 6.861495 0.798889
v 1.000000 5.138505 0.798889
v -1.000000 6.861495 -0.798889
v -1.000000 5.138505 -0.798889
v -1.000000 6.861495 0.798889
v -1.000000 5.138505 0.798889
vt 0.466001 0.224899
vt 0.466001 0.404596
vt 0.324341 0.404596
vt 0.324341 0.224899
vt 0.003819 0.224899
vt 0.156581 0.224899
vt 0.156581 0.404596
vt 0.003819 0.404596
vt 0.003542 0.567768
vt 0.003542 0.412959
vt 0.145202 0.412959
vt 0.145202 0.567768
vt 0.375917 0.184190
vt 0.375917 0.004492
vt 0.517577 0.004492
vt 0.517577 0.184190
vt 0.152285 0.567768
vt 0.152285 0.412959
vt 0.293945 0.412959
vt 0.293945 0.567768
vt 0.316981 0.404596
vt 0.164219 0.404596
vt 0.164219 0.224899
vt 0.316981 0.224899
vn 0.0000 1.0000 0.0000
vn 0.0000 0.0000 1.0000
vn -1.0000 0.0000 0.0000
vn 0.0000 -1.0000 0.0000
vn 1.0000 0.0000 0.0000
vn 0.0000 0.0000 -1.0000
usemtl MyMan
s off
f 9/25/7 13/26/7 15/27/7 11/28/7
f 12/29/8 11/30/8 15/31/8 16/32/8
f 16/33/9 15/34/9 13/35/9 14/36/9
f 14/37/10 10/38/10 12/39/10 16/40/10
f 10/41/11 9/42/11 11/43/11 12/44/11
f 14/45/12 13/46/12 9/47/12 10/48/12
o Arm_L2_Cube.002
v -1.993590 2.431453 -0.568289
v -1.993590 2.431453 0.568289
v -1.126421 2.431453 -0.568289
v -1.126421 2.431453 0.568289
v -1.993590 4.114257 -0.568289
v -1.126421 4.114257 0.568289
v -1.993590 4.114257 0.568289
v -1.126421 4.114257 -0.568289
vt 0.953466 0.806460
vt 0.953466 0.908580
vt 0.876582 0.908580
vt 0.876582 0.806460
vt 0.759966 0.534142
vt 0.683082 0.534142
vt 0.683082 0.382944
vt 0.759966 0.382944
vt 0.577870 0.541702
vt 0.678640 0.541702
vt 0.678640 0.692900
vt 0.577870 0.692900
vt 0.678640 0.375384
vt 0.577871 0.375384
vt 0.577870 0.224186
vt 0.678640 0.224186
vt 0.921422 0.432306
vt 0.844538 0.432306
vt 0.844538 0.330185
vt 0.921422 0.330185
vt 0.290423 0.726616
vt 0.213539 0.726616
vt 0.213539 0.575418
vt 0.290423 0.575418
vn 0.0000 -1.0000 0.0000
vn 0.0000 -0.0000 -1.0000
vn -1.0000 0.0000 0.0000
vn 1.0000 0.0000 0.0000
vn 0.0000 1.0000 0.0000
vn 0.0000 -0.0000 1.0000
usemtl MyMan
s off
f 19/49/13 20/50/13 18/51/13 17/52/13
f 19/53/14 17/54/14 21/55/14 24/56/14
f 17/57/15 18/58/15 23/59/15 21/60/15
f 20/61/16 19/62/16 24/63/16 22/64/16
f 24/65/17 21/66/17 23/67/17 22/68/17
f 18/69/18 20/70/18 22/71/18 23/72/18
o Leg_L2_Cube.003
v -0.993590 0.002249 -0.568289
v -0.993590 0.002249 0.568289
v -0.126421 0.002249 -0.568289
v -0.126421 0.002249 0.568289
v -0.993590 1.353772 -0.568289
v -0.126421 1.353772 0.568289
v -0.993590 1.353772 0.568289
v -0.126421 1.353772 -0.568289
vt 0.299409 0.981793
vt 0.299409 0.879673
vt 0.376293 0.879673
vt 0.376293 0.981793
vt 0.763810 0.223442
vt 0.840694 0.223442
vt 0.840694 0.344875
vt 0.763810 0.344875
vt 0.209098 0.696107
vt 0.108328 0.696107
vt 0.108328 0.574674
vt 0.209097 0.574674
vt 0.400776 0.753964
vt 0.300006 0.753964
vt 0.300006 0.632531
vt 0.400776 0.632531
vt 0.763810 0.478451
vt 0.840694 0.478451
vt 0.840694 0.599884
vt 0.763810 0.599884
vt 0.921422 0.437412
vt 0.921422 0.539532
vt 0.844538 0.539532
vt 0.844538 0.437412
vn 0.0000 1.0000 0.0000
vn 0.0000 0.0000 -1.0000
vn -1.0000 0.0000 0.0000
vn 1.0000 0.0000 0.0000
vn 0.0000 0.0000 1.0000
vn 0.0000 -1.0000 0.0000
usemtl MyMan
s off
f 25/73/19 26/74/19 28/75/19 27/76/19
f 31/77/20 30/78/20 28/79/20 26/80/20
f 30/81/21 32/82/21 27/83/21 28/84/21
f 29/85/22 31/86/22 26/87/22 25/88/22
f 32/89/23 29/90/23 25/91/23 27/92/23
f 32/93/24 30/94/24 31/95/24 29/96/24
o Arm_R1_Cube.004
v 1.993590 5.109511 -0.568289
v 1.993590 5.109511 0.568289
v 1.126421 5.109511 -0.568289
v 1.126421 5.109511 0.568289
v 1.993590 4.167537 -0.568289
v 1.126421 4.167537 0.568289
v 1.993590 4.167537 0.568289
v 1.126421 4.167537 -0.568289
vt 0.917350 0.211900
vt 0.840466 0.211900
vt 0.840466 0.109779
vt 0.917350 0.109779
vt 0.628849 0.214256
vt 0.628849 0.129620
vt 0.705733 0.129620
vt 0.705733 0.214256
vt 0.748647 0.921474
vt 0.665131 0.921474
vt 0.665131 0.819354
vt 0.748647 0.819354
vt 0.577439 0.819354
vt 0.660955 0.819354
vt 0.660955 0.921474
vt 0.577439 0.921474
vt 0.788890 0.997884
vt 0.788890 0.913249
vt 0.865774 0.913249
vt 0.865774 0.997884
vt 0.107730 0.821816
vt 0.184614 0.821816
vt 0.184614 0.923936
vt 0.107731 0.923936
vn 0.0000 1.0000 0.0000
vn 0.0000 0.0000 1.0000
vn -1.0000 0.0000 0.0000
vn 1.0000 0.0000 0.0000
vn 0.0000 0.0000 -1.0000
vn 0.0000 -1.0000 0.0000
usemtl MyMan
s off
f 33/97/25 35/98/25 36/99/25 34/100/25
f 39/101/26 34/102/26 36/103/26 38/104/26
f 38/105/27 36/106/27 35/107/27 40/108/27
f 37/109/28 33/110/28 34/111/28 39/112/28
f 40/113/29 35/114/29 33/115/29 37/116/29
f 40/117/30 37/118/30 39/119/30 38/120/30
o Arm_R2_Cube.005
v 1.993590 2.431453 -0.568289
v 1.993590 2.431453 0.568289
v 1.126421 2.431453 -0.568289
v 1.126421 2.431453 0.568289
v 1.993590 4.114257 -0.568289
v 1.126421 4.114257 0.568289
v 1.993590 4.114257 0.568289
v 1.126421 4.114257 -0.568289
vt 0.460865 0.879673
vt 0.537749 0.879673
vt 0.537749 0.981793
vt 0.460865 0.981793
vt 0.683082 0.692900
vt 0.683082 0.541702
vt 0.759966 0.541702
vt 0.759966 0.692900
vt 0.577871 0.534142
vt 0.577870 0.382944
vt 0.678640 0.382944
vt 0.678640 0.534142
vt 0.103289 0.575418
vt 0.103289 0.726616
vt 0.002519 0.726616
vt 0.002519 0.575418
vt 0.844538 0.646758
vt 0.844538 0.544638
vt 0.921422 0.544638
vt 0.921422 0.646758
vt 0.683082 0.375384
vt 0.683082 0.224186
vt 0.759966 0.224186
vt 0.759966 0.375384
vn 0.0000 -1.0000 0.0000
vn 0.0000 -0.0000 -1.0000
vn 1.0000 -0.0000 0.0000
vn -1.0000 -0.0000 0.0000
vn 0.0000 1.0000 0.0000
vn 0.0000 -0.0000 1.0000
usemtl MyMan
s off
f 43/121/31 41/122/31 42/123/31 44/124/31
f 43/125/32 48/126/32 45/127/32 41/128/32
f 41/129/33 45/130/33 47/131/33 42/132/33
f 44/133/34 46/134/34 48/135/34 43/136/34
f 48/137/35 46/138/35 47/139/35 45/140/35
f 42/141/36 47/142/36 46/143/36 44/144/36
o Arm_L1_Cube.006
v -1.993590 5.109511 -0.568289
v -1.993590 5.109511 0.568289
v -1.126421 5.109511 -0.568289
v -1.126421 5.109511 0.568289
v -1.993590 4.167537 -0.568289
v -1.126421 4.167537 0.568289
v -1.993590 4.167537 0.568289
v -1.126421 4.167537 -0.568289
vt 0.844538 0.325079
vt 0.844538 0.222959
vt 0.921422 0.222959
vt 0.921422 0.325079
vt 0.786461 0.214256
vt 0.709577 0.214256
vt 0.709577 0.129620
vt 0.786461 0.129620
vt 0.872572 0.699233
vt 0.872572 0.801354
vt 0.789056 0.801354
vt 0.789056 0.699233
vt 0.872572 0.806460
vt 0.872572 0.908580
vt 0.789056 0.908580
vt 0.789056 0.806460
vt 0.840694 0.689671
vt 0.763810 0.689671
vt 0.763810 0.605035
vt 0.840694 0.605035
vt 0.917350 0.002553
vt 0.917350 0.104673
vt 0.840466 0.104673
vt 0.840466 0.002553
vn 0.0000 1.0000 0.0000
vn 0.0000 0.0000 1.0000
vn 1.0000 0.0000 0.0000
vn -1.0000 0.0000 0.0000
vn 0.0000 0.0000 -1.0000
vn 0.0000 -1.0000 0.0000
usemtl MyMan
s off
f 49/145/37 50/146/37 52/147/37 51/148/37
f 55/149/38 54/150/38 52/151/38 50/152/38
f 54/153/39 56/154/39 51/155/39 52/156/39
f 53/157/40 55/158/40 50/159/40 49/160/40
f 56/161/41 53/162/41 49/163/41 51/164/41
f 56/165/42 54/166/42 55/167/42 53/168/42
o Leg_R1_Cube.007
v 0.993590 2.680308 -0.568289
v 0.993590 2.680308 0.568289
v 0.126421 2.680308 -0.568289
v 0.126421 2.680308 0.568289
v 0.993590 1.407052 -0.568289
v 0.126421 1.407052 0.568289
v 0.993590 1.407052 0.568289
v 0.126421 1.407052 -0.568289
vt 0.380137 0.879673
vt 0.457021 0.879673
vt 0.457021 0.981793
vt 0.380137 0.981793
vt 0.290423 0.733256
vt 0.290423 0.847657
vt 0.213539 0.847657
vt 0.213539 0.733256
vt 0.209097 0.702003
vt 0.209098 0.816403
vt 0.108328 0.816403
vt 0.108328 0.702003
vt 0.678640 0.699540
vt 0.678640 0.813941
vt 0.577870 0.813941
vt 0.577870 0.699540
vt 0.213539 0.955190
vt 0.213539 0.853070
vt 0.290423 0.853070
vt 0.290423 0.955190
vt 0.457021 0.759859
vt 0.457021 0.874260
vt 0.380137 0.874260
vt 0.380137 0.759859
vn 0.0000 -1.0000 0.0000
vn 0.0000 -0.0000 1.0000
vn -1.0000 -0.0000 0.0000
vn 1.0000 -0.0000 0.0000
vn 0.0000 1.0000 0.0000
vn 0.0000 -0.0000 -1.0000
usemtl MyMan
s off
f 59/169/43 57/170/43 58/171/43 60/172/43
f 59/173/44 64/174/44 61/175/44 57/176/44
f 57/177/45 61/178/45 63/179/45 58/180/45
f 60/181/46 62/182/46 64/183/46 59/184/46
f 64/185/47 62/186/47 63/187/47 61/188/47
f 58/189/48 63/190/48 62/191/48 60/192/48
o Leg_R2_Cube.008
v 0.993590 0.002249 -0.568289
v 0.993590 0.002249 0.568289
v 0.126421 0.002249 -0.568289
v 0.126421 0.002249 0.568289
v 0.993590 1.353772 -0.568289
v 0.126421 1.353772 0.568289
v 0.993590 1.353772 0.568289
v 0.126421 1.353772 -0.568289
vt 0.998078 0.104673
vt 0.921194 0.104673
vt 0.921194 0.002553
vt 0.998078 0.002553
vt 0.840694 0.350946
vt 0.840694 0.472379
vt 0.763810 0.472379
vt 0.763810 0.350946
vt 0.472062 0.753963
vt 0.472062 0.632531
vt 0.572832 0.632531
vt 0.572832 0.753963
vt 0.629446 0.124469
vt 0.629446 0.003036
vt 0.730216 0.003036
vt 0.730216 0.124469
vt 0.078806 0.733432
vt 0.078806 0.854865
vt 0.001922 0.854865
vt 0.001922 0.733432
vt 0.001922 0.860454
vt 0.078806 0.860454
vt 0.078806 0.962574
vt 0.001922 0.962574
vn 0.0000 1.0000 0.0000
vn 0.0000 0.0000 -1.0000
vn 1.0000 0.0000 0.0000
vn -1.0000 0.0000 0.0000
vn 0.0000 0.0000 1.0000
vn 0.0000 -1.0000 0.0000
usemtl MyMan
s off
f 65/193/49 67/194/49 68/195/49 66/196/49
f 71/197/50 66/198/50 68/199/50 70/200/50
f 70/201/51 68/202/51 67/203/51 72/204/51
f 69/205/52 65/206/52 66/207/52 71/208/52
f 72/209/53 67/210/53 65/211/53 69/212/53
f 72/213/54 69/214/54 71/215/54 70/216/54
o Leg_L1_Cube.009
v -0.993590 2.680308 -0.568289
v -0.993590 2.680308 0.568289
v -0.126421 2.680308 -0.568289
v -0.126421 2.680308 0.568289
v -0.993590 1.407052 -0.568289
v -0.126421 1.407052 0.568289
v -0.993590 1.407052 0.568289
v -0.126421 1.407052 -0.568289
vt 0.998078 0.109779
vt 0.998078 0.211900
vt 0.921194 0.211900
vt 0.921194 0.109779
vt 0.299409 0.759859
vt 0.376293 0.759859
vt 0.376293 0.874260
vt 0.299409 0.874260
vt 0.683679 0.699540
vt 0.784449 0.699540
vt 0.784449 0.813941
vt 0.683679 0.813941
vt 0.735255 0.002860
vt 0.836025 0.002860
vt 0.836025 0.117261
vt 0.735255 0.117261
vt 0.953466 0.801354
vt 0.876582 0.801354
vt 0.876582 0.699233
vt 0.953466 0.699233
vt 0.460865 0.759859
vt 0.537749 0.759859
vt 0.537749 0.874260
vt 0.460865 0.874260
vn 0.0000 -1.0000 0.0000
vn 0.0000 -0.0000 1.0000
vn 1.0000 0.0000 0.0000
vn -1.0000 0.0000 0.0000
vn 0.0000 1.0000 0.0000
vn 0.0000 -0.0000 -1.0000
usemtl MyMan
s off
f 75/217/55 76/218/55 74/219/55 73/220/55
f 75/221/56 73/222/56 77/223/56 80/224/56
f 73/225/57 74/226/57 79/227/57 77/228/57
f 76/229/58 75/230/58 80/231/58 78/232/58
f 80/233/59 77/234/59 79/235/59 78/236/59
f 74/237/60 76/238/60 78/239/60 79/240/60
